<svg width="1440" height="1024" viewBox="0 0 1440 1024" fill="none" xmlns="http://www.w3.org/2000/svg">
<path d="M1452.42 -200H-37V900H1452.42V-200Z" fill="url(#paint0_linear_29_220)"/>
<g style="mix-blend-mode:lighten" opacity="0.15">
<path d="M1379.44 46.3999C1245.39 0.199953 1157.78 63.032 1157.78 63.032C1054.69 67.256 1059.42 132.926 1059.42 132.926C1020.88 127.404 996.957 168.61 996.957 168.61C933.895 151.384 904.017 200.928 904.017 200.928C820.967 155.674 788.736 233.246 788.736 233.246C701.277 142.76 587.455 215.998 587.455 215.998C543.756 136.27 449.148 179.368 449.148 179.368C421.772 134.114 400.712 155.674 400.712 155.674C336.547 52.252 196.959 101.818 196.959 101.818C188.678 69.5 138.782 84.592 138.782 84.592C131.573 72.228 122.666 62.614 112.747 55.222C112.747 55.222 82.1538 26.6 24.0664 32.1L-36.6421 55.222V910.45L1452.42 962.458L1453.91 55.222L1498.59 63.0319L1379.44 46.3999Z" fill="white"/>
</g>
<g style="mix-blend-mode:lighten" opacity="0.15">
<path d="M-36.6421 185.154C-36.6421 185.154 26.9264 145.686 75.5113 190.94C75.5113 190.94 189.839 141.132 254.301 239.868C254.301 239.868 402.618 190.258 490.822 314.536C490.822 314.536 562.314 307.738 574.11 343.466C574.11 343.466 627.878 301.226 679.501 331.718C679.501 331.718 777.327 234.522 904.047 297.508C904.047 297.508 926.865 233.092 1006.49 259.338C1006.49 259.338 1072.98 210.696 1136.01 265.168C1136.01 265.168 1199.64 241.342 1240.83 302.612C1240.83 302.612 1381.76 236.216 1454.06 343.466L1452.48 690.67L-36.6421 680.33V185.154Z" fill="white"/>
</g>
<g style="mix-blend-mode:lighten" opacity="0.15">
<path d="M-37 424.36C-37 424.36 83.1367 330.86 196.958 424.36C196.958 424.36 241.849 369.646 282.6 403.592C282.6 403.592 374.676 346.326 428.504 424.36C428.504 424.36 608.009 410.5 670.654 482.726C670.654 482.726 702.855 432.148 766.185 482.726C766.185 482.726 814.681 452.982 872.292 514.78C872.292 514.78 889.539 440.64 957.844 471.528C957.844 471.528 1027.7 375.74 1129.43 412.832C1129.43 412.832 1232.28 341.772 1323.74 406.65C1323.74 406.65 1396.6 360.296 1454 409.73V584.344L1009.14 887.636L-36.6425 593.848L-37 424.36Z" fill="white"/>
</g>
<path d="M672.22 391.881C867.611 377.003 1111.15 187.005 1241.92 243.444C1372.69 299.883 1498.81 332.088 1545 342.007V468.538L1208.44 541L661 484.099L672.22 391.881Z" fill="#84CDE0"/>
<path d="M-35.101 361.027C218.992 330.186 511.313 129.924 693.988 190.265C901.928 258.963 1185.74 395.216 1408.59 409.905C1631.43 424.595 943.21 527 943.21 527L1.39267 475.737L-37 419.344L-35.0597 361.027H-35.101Z" fill="#61BCE3"/>
<path d="M116.965 455.147C116.965 455.147 150.723 397.691 185.906 408.595C185.906 408.595 228.648 372.947 252.142 388.416C252.142 388.416 270.955 348.871 300.555 363.933C300.555 363.933 336.61 343.608 349.753 356.635C349.753 356.635 388.658 313.398 421.631 341.486C421.631 341.486 498.626 316.102 530.465 350.674C530.465 350.674 565.037 342.649 571.463 363.962C571.463 363.962 633.019 381.699 640.578 415.486C648.109 449.273 632.786 409.845 632.786 409.845C632.786 409.845 668.5 389.055 731.5 402.5C790.5 407.955 805.647 461.718 805.647 461.718C805.647 461.718 844.843 373.179 909.248 407.955C909.248 407.955 933.41 363.439 970.541 387.834C970.541 387.834 969.756 362.654 995.838 373.179C995.838 373.179 1022.18 332.036 1060.5 366.608C1060.5 366.608 1099.87 351.168 1131.04 382.222C1131.04 382.222 1178 342.998 1205.16 389.055C1205.16 389.055 1233.19 375.738 1243.66 396.848C1243.66 396.848 1297.01 371.173 1313.73 425.721C1313.73 425.721 1353.74 420.807 1368.57 470.79V546.506L863.655 598.03L146.303 517.691L116.965 455.147Z" fill="#1D7568"/>
<path d="M-1 416.591C-1 416.591 41.074 408.333 57.0662 435.723C57.0662 435.723 99.6927 407.664 120.395 441.161C120.395 441.161 214.924 448.226 182.416 468.406C175.903 472.447 94.11 537.841 94.11 537.841L-0.360312 529.787L-1 416.591Z" fill="#339172"/>
<path d="M1452.46 428.251C1452.46 428.251 1412.3 422.057 1397.16 454.652C1397.16 454.652 1365.78 434.706 1343.04 467.039C1343.04 467.039 1318.33 447.994 1304.58 470.848C1304.58 470.848 1250.52 466.225 1241.22 503.181L1371.31 577.094L1454 536.096L1452.43 428.222L1452.46 428.251Z" fill="#339172"/>
<path d="M-36.1604 522.82C336.554 353.892 567.58 465.544 769 590.76L549.604 716L-37 590.784L-36.1604 522.845V522.82Z" fill="#A8E26A"/>
<path d="M600 563.713C640 548 1023.89 406.153 1459 493.247V602.72L1272.99 674H691.476L447.5 651C447.5 651 526.5 602.72 600 563.713Z" fill="#92CC5A"/>
<path d="M-37 550.563C265.889 506.402 478.738 581.426 660.131 665.562L614.318 709.852L-8.30242 715.578L-37 682.116V550.547V550.563Z" fill="#4BB753"/>
<path d="M-37 577.256V682.117L-8.31846 715.562L591.106 746.153C436.775 657.862 252.526 573.807 -37 577.256Z" fill="#3DA543"/>
<path d="M432.427 783.902C432.427 783.902 385.015 701.591 600.507 674.935C1083.79 615.144 1185.6 520.183 1468.72 534.97L1464.2 723.263L651.752 822.632L432.427 783.936V783.902Z" fill="#329359"/>
<path d="M908.484 727.468C903.906 729.401 874.774 758.33 870.229 760.365L1466.92 701.693V565.9C1343.74 573.802 1128.11 635.017 908.484 727.434V727.468Z" fill="#297F4C"/>
<path d="M-1 687.65C-1 687.65 116 586.5 733.5 687.65C1324.5 759.5 1468 687.65 1468 687.65V1144H-1V687.65Z" fill="#166336"/>
<defs>
<linearGradient id="paint0_linear_29_220" x1="705.119" y1="721.998" x2="710.302" y2="-640.764" gradientUnits="userSpaceOnUse">
<stop stop-color="white"/>
<stop offset="1" stop-color="#00AEFF"/>
</linearGradient>
</defs>
</svg>
