<svg width="1142" height="1631" viewBox="0 0 1142 1631" fill="none" xmlns="http://www.w3.org/2000/svg">
<path d="M780.11 1137.87C765.247 1140.11 739.624 1168.3 728.67 1182.11C707.037 1232.64 676.17 1339.54 725.772 1362.84C775.374 1386.14 822.897 1376.44 840.458 1368.67C838.218 1374.31 838.233 1384.44 856.219 1379.86C874.205 1375.28 880.457 1354 881.334 1343.93C893.693 1340.06 919.223 1327.67 922.476 1309.02C925.73 1290.38 918.991 1272.85 915.215 1266.41C923.275 1268.46 939.524 1267.92 940.038 1249.43C940.552 1230.93 913.434 1212.55 899.81 1205.67C907.46 1207.18 921.166 1205.96 914.788 1188.95C908.411 1171.94 876.016 1162.77 860.616 1160.31C862.526 1153.68 861.978 1139.55 844.498 1136.05C827.019 1132.54 803.504 1146.35 793.932 1153.69C795.518 1147.48 794.974 1135.62 780.11 1137.87Z" fill="#F1F1F1"/>
<path d="M927.835 1268.03C932.132 1264.74 936.191 1261.47 939.906 1258.35C937.604 1264.34 932.809 1267.07 927.835 1268.03Z" fill="#DCE2F3"/>
<path d="M919.584 1274.17C900.216 1288.11 877.748 1301.01 860.396 1302.54C855.393 1311.1 839.681 1329.81 816.865 1336.17C794.048 1342.52 792.257 1325.34 801.763 1313.2C779.103 1315.83 741.166 1315.2 700.415 1307.7C700.729 1333.59 707.881 1355.07 727.046 1364.08C776.647 1387.38 824.171 1377.67 841.732 1369.91C839.492 1375.55 839.507 1385.68 857.493 1381.1C875.478 1376.52 881.73 1355.23 882.608 1345.17C894.966 1341.3 920.496 1328.9 923.75 1310.26C926.212 1296.15 922.952 1282.68 919.584 1274.17Z" fill="#DCE2F3"/>
<path d="M793.932 1153.69C795.518 1147.48 794.974 1135.62 780.11 1137.87C765.247 1140.11 739.624 1168.3 728.67 1182.11C707.037 1232.64 676.17 1339.54 725.772 1362.84C775.374 1386.14 822.897 1376.44 840.458 1368.67M793.932 1153.69C803.504 1146.35 827.019 1132.54 844.498 1136.05C861.978 1139.55 862.526 1153.68 860.616 1160.31M793.932 1153.69C791.615 1155.79 785.954 1161.24 781.849 1166.16M860.616 1160.31C876.016 1162.77 908.411 1171.94 914.788 1188.95C921.166 1205.96 907.46 1207.18 899.81 1205.67M860.616 1160.31C857.798 1160.28 850.504 1160.43 843.867 1161.28M899.81 1205.67C913.434 1212.55 940.552 1230.93 940.038 1249.43C939.524 1267.92 923.275 1268.46 915.215 1266.41M899.81 1205.67C897.257 1204.5 891.106 1201.58 886.929 1199.17M915.215 1266.41C918.991 1272.85 925.73 1290.38 922.476 1309.02C919.223 1327.67 893.693 1340.06 881.334 1343.93C880.457 1354 874.205 1375.28 856.219 1379.86C838.233 1384.44 838.218 1374.31 840.458 1368.67M915.215 1266.41C916.017 1261.53 917.375 1250.11 916.383 1243.4M915.215 1266.41C913.415 1273.13 907.207 1287.68 896.779 1292.15M840.458 1368.67C843.277 1366.71 849.698 1361.38 852.835 1355.8" stroke="black" stroke-width="9.3166" stroke-linecap="round"/>
<path d="M585.685 1463.52L566.052 1320.51L730.328 1196.59C730.328 1291.24 720.047 1323.06 717.661 1385.72C715.747 1435.96 720.206 1477.6 720.206 1489.08C720.206 1504.07 714.891 1513.93 704.547 1520.2C692.631 1527.41 668.15 1529.85 643.33 1529.85C617.117 1529.85 594.555 1529.35 579.79 1524.51C568.438 1520.79 563.484 1512.55 563.235 1501.96C562.663 1477.62 579.579 1466.97 585.685 1463.52Z" fill="#F1F1F1"/>
<path d="M719.195 1469.55C719.275 1470.87 719.353 1472.14 719.428 1473.35C719.873 1480.55 720.206 1485.94 720.206 1489.08C720.206 1504.07 714.891 1513.93 704.547 1520.2C692.631 1527.41 668.15 1529.85 643.33 1529.85C617.117 1529.85 594.555 1529.35 579.79 1524.51C568.438 1520.79 563.484 1512.55 563.235 1501.96C563.161 1498.79 563.383 1495.85 563.84 1493.13C597.828 1498.89 657.67 1504.55 689.026 1491.24C702.817 1485.38 712.513 1477.58 719.195 1469.55Z" fill="#DCE2F3"/>
<path d="M720.897 1340.52C671.988 1336.19 607.777 1362.79 574.322 1380.75L566.052 1320.5L730.328 1196.59C730.328 1253.72 726.583 1287.96 723.089 1319.9C722.333 1326.81 721.589 1333.61 720.897 1340.52Z" fill="#DCE2F3"/>
<path d="M644.515 1528.16C668.996 1528.16 693.145 1525.74 704.898 1518.6C715.101 1512.41 720.344 1502.65 720.344 1487.82C720.344 1476.46 715.946 1435.28 717.833 1385.58C720.187 1323.6 730.328 1292.12 730.328 1198.49L568.289 1321.07L587.655 1462.54C581.632 1465.95 564.946 1476.49 565.51 1500.57C565.756 1511.03 570.642 1519.19 581.84 1522.87C585.548 1524.09 589.754 1525.03 594.391 1525.75M644.515 1528.16C625.241 1528.16 607.969 1527.88 594.391 1525.75M644.515 1528.16C640.663 1521.4 635.272 1505.34 644.515 1495.12M594.391 1525.75C592.206 1517.93 590.44 1500.44 600.854 1493.08" stroke="black" stroke-width="9.3166" stroke-linecap="round"/>
<path d="M432.447 1153.95C437.853 1088.18 479.778 1010.36 500.065 979.665L416.279 921.669C356.186 998.241 307.382 1098.67 298.711 1193.59C290.041 1288.5 362.183 1320.17 393.742 1289.21C424.525 1259.01 425.689 1236.16 432.447 1153.95Z" fill="#F1F1F1"/>
<path d="M440.075 1111.73C436.294 1125.97 433.575 1140.22 432.447 1153.95C432.281 1155.96 432.119 1157.93 431.96 1159.87C425.614 1237.28 423.773 1259.75 393.742 1289.21C382.586 1300.16 366.358 1303.27 350.422 1298.54C327.366 1195.3 379.131 1065.12 409.354 1010.75L440.075 1111.73Z" fill="#DCE2F3"/>
<path d="M432.447 1153.95C437.853 1088.18 479.778 1010.36 500.065 979.665L416.279 921.669C356.186 998.241 307.382 1098.67 298.711 1193.59C290.041 1288.5 362.183 1320.17 393.742 1289.21C424.525 1259.01 425.689 1236.16 432.447 1153.95Z" stroke="black" stroke-width="9.3166" stroke-linecap="round"/>
<path d="M319.684 1053.12C352.889 980.111 380.875 949.909 390.717 943.935L442.056 937.394C442.056 996.357 434.041 1111.46 401.981 1100.17C369.921 1088.88 333.758 1064.1 319.684 1053.12Z" fill="#3593FD"/>
<path fill-rule="evenodd" clip-rule="evenodd" d="M406.046 1100.94C404.736 1100.92 403.381 1100.66 401.981 1100.17C382.812 1093.42 362.177 1081.85 345.673 1071.29C361.754 1029.98 386.944 980.565 415.094 966.433C449.305 949.258 426.669 1038.54 406.046 1100.94Z" fill="#2379DA"/>
<path d="M319.684 1053.12C352.889 980.111 380.875 949.909 390.717 943.935L442.055 937.394C442.055 996.357 434.04 1111.46 401.981 1100.17C369.921 1088.88 333.758 1064.1 319.684 1053.12Z" stroke="black" stroke-width="9.3166" stroke-linecap="round"/>
<path d="M424.269 1462.11C410.035 1381.65 394.577 1325.22 386.331 1219.33L546.299 1197.99C542.988 1283.8 547.134 1461.87 547.134 1487.67C547.134 1502.66 542.279 1512.53 532.831 1518.79C521.948 1526.01 499.588 1528.45 476.919 1528.45C452.977 1528.45 432.37 1527.94 418.885 1523.11C408.516 1519.39 403.992 1511.14 403.764 1500.56C403.242 1476.22 418.692 1465.56 424.269 1462.11Z" fill="#F1F1F1"/>
<path d="M545.017 1287.85C545.011 1345.75 545.999 1409.08 546.627 1449.34C546.919 1468.07 547.134 1481.81 547.134 1487.67C547.134 1502.66 542.279 1512.53 532.831 1518.79C521.948 1526.01 499.588 1528.45 476.919 1528.45C452.977 1528.45 432.37 1527.94 418.885 1523.1C408.516 1519.38 403.992 1511.14 403.764 1500.56C403.663 1495.84 404.162 1491.64 405.072 1487.9C445.438 1503.15 512.23 1493.33 512.23 1461.71C512.23 1441.72 507.011 1420.15 501.623 1403.71C497.14 1390.04 486.558 1382.67 475.406 1381.21C447.233 1377.54 422.788 1365.58 403.105 1350.53C396.639 1314.34 390.872 1275.18 386.761 1224.73L545.017 1287.85Z" fill="#DCE2F3"/>
<path d="M476.919 1528.45C499.588 1528.45 521.948 1526.01 532.831 1518.79C542.279 1512.53 547.134 1502.66 547.134 1487.67C547.134 1461.87 542.988 1283.8 546.299 1197.99L383.414 1216.41C391.66 1322.3 410.035 1381.65 424.269 1462.11C418.692 1465.56 403.242 1476.22 403.764 1500.56C403.992 1511.14 408.516 1519.39 418.885 1523.11C423.039 1524.6 427.869 1525.67 433.265 1526.45M476.919 1528.45C460.353 1528.45 445.383 1528.21 433.265 1526.45M476.919 1528.45C472.608 1522.11 466.574 1506.24 476.919 1493.44M433.265 1526.45C426.357 1515.22 427.54 1495.68 440.881 1487.67" stroke="black" stroke-width="9.3166" stroke-linecap="round"/>
<path d="M375.573 1192.85C362.542 1062.21 411.88 963.874 429.237 920.595C512.758 903.672 680.791 880.755 694.136 920.595C731.365 1031.73 738.197 1133.25 731.365 1204.72C725.48 1266.28 694.136 1323.19 578.657 1343.46C463.178 1363.73 388.266 1320.1 375.573 1192.85Z" fill="#F1F1F1"/>
<path d="M394.452 1012.11C474.043 1037.79 604.488 1050.62 679.084 954.001C689.217 940.876 693.998 929.976 694.28 921.024C694.232 920.881 694.184 920.738 694.136 920.595C680.791 880.755 512.758 903.672 429.237 920.595C427.445 925.063 425.312 930.119 422.941 935.737C414.833 954.954 403.951 980.746 394.452 1012.11Z" fill="#DCE2F3"/>
<path d="M724.164 1041.02C734.573 1103.96 735.623 1160.18 731.365 1204.72C725.48 1266.28 694.136 1323.19 578.657 1343.46C486.676 1359.61 420.432 1335.21 390.867 1260.31C419.787 1284.51 482.453 1314.43 574.9 1299.2C706.216 1277.57 710.165 1161.55 712.999 1078.29C713.087 1075.71 713.173 1073.16 713.263 1070.65C713.82 1054.98 717.869 1045.67 724.164 1041.02Z" fill="#DCE2F3"/>
<path d="M575.662 1343.97C550.103 1348.18 526.565 1348.52 505.287 1345.08M390.54 1279.82C389.441 1270.55 387.065 1252.6 385.948 1248.54C380.573 1229.01 377.324 1210.41 375.573 1192.85C362.542 1062.21 411.88 963.874 429.237 920.595C512.758 903.672 680.791 880.755 694.136 920.595C731.365 1031.73 738.197 1133.25 731.365 1204.72C730.973 1216.32 730.329 1241.75 730.329 1245.08" stroke="black" stroke-width="9.3166" stroke-linecap="round"/>
<path d="M520.052 1029.88C474.153 1028.46 448.515 1003.88 439.717 977.879V961.835H411.069C376.323 1070.56 360.784 1136.79 380.96 1223.27C484.884 1269.25 659.498 1242.43 736.575 1223.27C741.47 1116.37 725.639 990.283 717.111 947.661L621.024 967.363C611.347 989.756 565.952 1031.29 520.052 1029.88Z" fill="#3593FD"/>
<path fill-rule="evenodd" clip-rule="evenodd" d="M731.34 1057.48L703.767 1054.35C706.877 1085.82 704.886 1165.77 672.037 1233.84C671.262 1235.45 670.548 1237.01 669.894 1238.53C695.847 1234.33 718.706 1229.62 736.539 1225.29C739.141 1169.8 736.109 1109.22 731.34 1057.48Z" fill="#2379DA"/>
<path d="M515.789 1029.88C468.99 1028.46 442.849 1003.88 433.878 977.879V961.835H404.669C369.241 1070.56 353.398 1136.79 373.969 1223.27C479.931 1269.25 657.968 1242.43 736.557 1223.27C741.548 1116.37 725.407 990.283 716.712 947.661L618.741 967.363C608.874 989.756 562.588 1031.29 515.789 1029.88Z" stroke="black" stroke-width="9.3166" stroke-linecap="round"/>
<path d="M448.846 1054.4C426.816 1010.09 422.481 973.569 423.068 960.848C421.885 944.834 423.525 922.414 439.547 960.848C455.569 999.282 484.967 1023.89 499.272 1027.6C542.189 1023.67 587.131 987.101 602.629 973.105C618.723 946.156 646.475 908.428 628.736 973.105C610.998 1037.78 557.209 1062.29 532.532 1066.46C528.002 1054.85 515.008 1030.81 499.272 1027.6C483.536 1024.38 459.098 1044.13 448.846 1054.4Z" fill="#1166C5"/>
<path d="M499.459 1027.93C483.723 1024.71 459.098 1044.13 448.846 1054.4C426.816 1010.09 422.481 973.569 423.068 960.848C421.885 944.834 423.525 922.414 439.547 960.848C455.569 999.282 485.154 1024.22 499.459 1027.93ZM499.459 1027.93C515.195 1031.14 528.002 1054.85 532.532 1066.46C557.209 1062.29 610.998 1037.78 628.736 973.105C646.475 908.428 618.723 946.156 602.629 973.105C587.131 987.101 542.375 1024 499.459 1027.93ZM499.459 1027.93C497.921 1037.02 494.778 1062.93 494.515 1093.82" stroke="black" stroke-width="9.3166" stroke-linecap="round"/>
<path d="M861.017 890.264C806.883 935.685 709.279 957.094 667.244 962.121L703.128 1089.46C788.224 1089.46 937.911 1046.4 1016.86 981.638C1095.8 916.878 1051.28 826.978 998.401 821.956C946.817 817.057 928.684 833.488 861.017 890.264Z" fill="#F1F1F1"/>
<ellipse cx="964.753" cy="918.082" rx="31.2575" ry="36.0413" transform="rotate(-24.8338 964.753 918.082)" fill="#FFA289"/>
<ellipse cx="972.893" cy="853.484" rx="15.4705" ry="17.6271" transform="rotate(39.0538 972.893 853.484)" fill="#FFA289"/>
<ellipse cx="1009.74" cy="872.246" rx="15.4705" ry="17.6271" transform="rotate(55.8017 1009.74 872.246)" fill="#FFA289"/>
<ellipse cx="1020.89" cy="915.194" rx="15.4705" ry="17.6271" transform="rotate(64.9671 1020.89 915.194)" fill="#FFA289"/>
<path d="M667.244 962.121C709.279 957.094 806.883 935.685 861.017 890.264C928.683 833.488 946.817 817.057 998.401 821.956C1051.28 826.978 1095.8 916.878 1016.86 981.638C948.875 1037.4 828.439 1077.08 741.96 1087.02" stroke="black" stroke-width="9.3166" stroke-linecap="round"/>
<path d="M863.848 1062.64L816.718 1073.76C819.794 1079.25 829.513 1090.39 843.788 1091.08C858.063 1091.78 863.109 1072.41 863.848 1062.64Z" fill="#0C4F9B"/>
<path d="M697.69 1092.25L668.526 970.292L795.665 921.451C790.963 930.856 784.38 961.449 795.665 1008.58C806.951 1055.72 835.039 1084 847.672 1092.25C782.045 1103.2 720.339 1096.82 697.69 1092.25Z" fill="#3593FD"/>
<path d="M668.526 970.292L795.665 921.451C790.963 930.856 784.38 961.449 795.665 1008.58C806.951 1055.72 831.983 1092.25 847.672 1092.25M847.672 1092.25C807.909 1098.89 750.569 1098.33 721.5 1096.5M847.672 1092.25C854.229 1091.26 866.717 1083.35 864.21 1059.72" stroke="black" stroke-width="9.3166" stroke-linecap="round"/>
<path d="M789.159 192.113C697.575 306.525 682.783 462.776 634.404 518.789L752.82 566.369C902.128 490.156 1006.86 357.687 1018.47 252.508C1034.03 111.492 891.349 64.4537 789.159 192.113Z" fill="#F1F1F1"/>
<path d="M749.9 567.85C900.761 491.881 1006.79 358.371 1018.47 252.508C1034.03 111.492 891.349 64.4537 789.159 192.113C697.575 306.525 682.783 462.776 634.404 518.789L758.204 568.532" stroke="black" stroke-width="9.3166"/>
<path d="M760.106 360.146C713.824 474.603 691.794 505.478 679.806 527.713C775.258 517.659 835.282 483.75 912.545 388.897C992.001 291.349 993.643 176.595 924.473 169.22C855.303 161.845 810.692 235.048 760.106 360.146Z" fill="#FFA289"/>
<path fill-rule="evenodd" clip-rule="evenodd" d="M961.931 191.345C922.198 167.367 865.933 179.767 809.469 295.339C771.661 372.727 754.916 415.702 744.125 443.401C734.065 469.219 729.177 481.764 717.222 496.534C737.822 480.665 784.678 441.524 807.298 411.918C795.665 436.705 763.071 491.296 721.918 521.162C708.604 524.014 694.632 526.151 679.806 527.712C681.882 523.863 684.258 519.754 687.01 514.997C700.15 492.28 721.837 454.785 760.106 360.146C810.692 235.048 855.303 161.844 924.473 169.219C941.066 170.989 953.585 178.937 961.931 191.345Z" fill="#EB7C5F"/>
<path d="M760.106 360.146C713.824 474.603 691.794 505.478 679.806 527.713C775.258 517.659 835.282 483.75 912.545 388.897C992.001 291.349 993.643 176.595 924.473 169.22C855.303 161.845 810.692 235.048 760.106 360.146Z" stroke="black" stroke-width="9.31659"/>
<path d="M360.354 237.399C406.404 318.967 426.169 404.929 461.196 439.134L363.006 499.832C279.523 467.402 207.453 414.505 157.342 356.11C149.581 347.066 144.371 335.238 146.205 323.122C150.064 297.627 168.721 270.893 226.009 236.583C263.542 214.104 296.436 208.231 319.154 208.668C336.686 209.004 351.243 221.26 360.354 237.399Z" fill="#F1F1F1" stroke="black" stroke-width="9.3166"/>
<path d="M414.931 449.391C398.788 428.771 372.139 394.731 337.201 300.914C324.206 266.021 308.74 235.837 291.773 210.974C272.823 214.383 250.395 221.978 226.009 236.583C184.152 261.651 162.918 282.675 153.01 302.126C163.687 318.851 176.657 335.444 191.877 351.189C274.503 436.664 334.187 463.482 423.835 462.229L424.301 461.941C421.74 458.089 418.608 454.088 414.931 449.391Z" fill="#FFA289"/>
<path fill-rule="evenodd" clip-rule="evenodd" d="M337.2 300.914C372.138 394.731 398.787 428.771 414.93 449.391C416.336 451.187 417.662 452.881 418.907 454.503C417.151 457.321 414.827 460.022 411.851 462.224C395.141 461.966 379.447 460.621 364.395 457.975C332.198 440.252 311.604 409.428 305.07 395.475C319.22 406.454 345.976 420.776 357.585 426.564C333.062 397.746 314.994 328.57 309.026 297.585L287.958 259.831L323.25 267.247C328.156 277.919 332.819 289.149 337.2 300.914Z" fill="#EB7C5F"/>
<path d="M414.93 449.392C398.787 428.772 372.138 394.732 337.2 300.915C324.206 266.021 308.74 235.838 291.773 210.975C272.822 214.384 250.395 221.979 226.009 236.583C184.152 261.652 162.918 282.676 153.01 302.127C163.686 318.852 176.657 335.444 191.876 351.189C274.503 436.665 334.187 463.483 423.835 462.23L424.3 461.942C421.74 458.09 418.607 454.089 414.93 449.392Z" stroke="black" stroke-width="9.3166"/>
<path d="M206.295 509.309C280.374 499.397 316.881 336.221 325.875 255.872L325.638 209.495C299.858 203.643 211.535 217.32 158.827 290.414C106.119 363.507 113.697 521.698 206.295 509.309Z" fill="#F1F1F1"/>
<path d="M179.25 506.049C166.79 484.903 147.113 424.558 168.086 352.349C188.774 281.119 258.909 228.655 325.661 214.132L325.637 209.495C299.858 203.642 211.535 217.32 158.826 290.413C117.718 347.421 113.281 456.193 157.25 495.429L179.25 506.049Z" fill="#F0EEEB"/>
<path d="M325.875 255.872C316.881 336.221 280.374 499.397 206.295 509.309C113.697 521.698 106.119 363.507 158.827 290.414C211.535 217.32 299.858 203.643 325.638 209.495" stroke="black" stroke-width="9.3166" stroke-linecap="round"/>
<path d="M260.021 744.382C260.021 504.021 402.846 446.322 470.65 442.487C451.016 440.061 443.184 427.66 451.964 418.299C462.936 406.602 488.813 415.257 503.615 421.803C486.943 410.857 460.903 387.989 490.116 384.082C519.329 380.176 579.095 414.878 605.326 432.718C801.594 485.927 838.492 627.582 828.967 763.371C892.471 809.98 859.367 823.217 838.492 810.397C891.108 1006.58 445.494 1032.17 282.638 926.21C205.557 876.059 217.401 809.711 237.162 775.723C229.844 777.351 216.719 776.58 225.192 764.938C231.774 755.894 251.64 746.252 260.021 744.382Z" fill="#F1F1F1"/>
<ellipse cx="633.57" cy="714.419" rx="36.1029" ry="48.1919" fill="#1C1B19"/>
<ellipse cx="635.797" cy="706.039" rx="13.2503" ry="17.6872" fill="#FCFDEF"/>
<ellipse cx="621.815" cy="736.236" rx="7.29976" ry="9.74407" fill="#FCFDEF"/>
<ellipse cx="387.898" cy="714.419" rx="32.1644" ry="48.1919" fill="#1C1B19"/>
<ellipse cx="389.882" cy="706.039" rx="11.8048" ry="17.6872" fill="#FCFDEF"/>
<ellipse cx="377.426" cy="736.236" rx="6.50342" ry="9.74407" fill="#FCFDEF"/>
<path d="M605.211 432.639C605.249 432.665 605.288 432.692 605.326 432.718C805.41 484.818 838.371 624.972 829.019 762.61H817.512C810.536 569.908 660.56 483.948 586.443 465.055L605.211 432.639Z" fill="#DCE2F3"/>
<path d="M256.284 745.98C256.288 746.002 256.292 746.024 256.295 746.047C247.913 747.917 228.048 757.559 221.466 766.603C212.992 778.245 226.118 779.015 233.436 777.388C213.675 811.375 201.831 877.724 278.912 927.875C441.768 1033.83 887.382 1008.25 834.766 812.062C855.082 824.539 886.983 812.334 830.132 768.704C828.693 767.946 827.234 767.203 825.755 766.474C743.764 726.092 659.397 759.867 607.734 780.55C603.281 782.333 599.071 784.018 595.126 785.55C580.293 778.402 528.703 756.072 482.691 756.072C439.644 756.072 414.507 770.416 398.077 779.791C394.008 782.114 390.472 784.131 387.331 785.55C345.452 756.388 310.765 746.195 256.284 745.98Z" fill="#FCFDEF"/>
<path fill-rule="evenodd" clip-rule="evenodd" d="M844.626 816.049L840.677 807.557C840.3 809.745 839.832 812.011 839.237 814.345C841.022 815.089 842.838 815.658 844.626 816.049ZM836.978 821.689C824.64 855.651 780.641 900.967 605.398 934.346C459.823 962.075 317.91 929.118 249.302 903.699C257.256 912.024 267.027 920.142 278.912 927.874C439.065 1032.07 872.667 1009.06 836.978 821.689Z" fill="white"/>
<ellipse cx="738.636" cy="795.451" rx="59.4588" ry="29.5711" fill="#FFA289"/>
<ellipse cx="313.788" cy="795.451" rx="44.0738" ry="21.9195" fill="#FFA289"/>
<path d="M518.269 755.354C495.513 750.759 479.667 751.709 464.517 754.706C456.264 756.339 451.69 765.158 455.97 772.401C464.056 786.083 477.625 800.399 495.312 797.515C512.54 794.705 522.331 781.887 527.18 770.595C530.071 763.864 525.45 756.805 518.269 755.354Z" fill="black"/>
<path d="M489.662 776.068V821.363M489.662 821.363C490.833 827.094 497.725 838.556 515.926 838.556C534.127 838.556 542.048 827.094 543.733 821.363M489.662 821.363C488.525 827.094 482.676 838.556 468.375 838.556C450.499 838.556 447.216 828.433 446.851 824.898" stroke="black" stroke-width="9.3166" stroke-linecap="round"/>
<ellipse cx="472.956" cy="765.88" rx="4.37766" ry="10.0862" transform="rotate(82.6549 472.956 765.88)" fill="#FCFDEF"/>
<path d="M471.488 442.487C403.684 446.322 260.859 501.291 260.859 744.382C252.478 746.252 232.612 755.894 226.03 764.938C217.557 776.58 230.682 777.351 238 775.723C218.239 809.711 206.395 876.059 283.477 926.21C446.332 1032.17 891.946 1006.58 839.331 810.397C860.205 823.217 893.309 809.98 829.806 763.371C839.331 632.313 802.432 485.927 606.164 432.718C579.933 414.878 520.168 380.176 490.954 384.082C461.741 387.989 487.781 410.857 504.453 421.803M471.488 442.487C451.854 440.061 444.022 427.66 452.802 418.299C463.774 406.602 489.651 415.257 504.453 421.803M471.488 442.487C475.896 442.7 485.304 443.128 487.673 443.128M504.453 421.803L523.113 432.718" stroke="black" stroke-width="9.3166" stroke-linecap="round"/>
<ellipse cx="31.8097" cy="9.78559" rx="31.8097" ry="9.78559" transform="matrix(0.994649 0.103309 -0.113809 0.993503 598.905 610.643)" fill="#1C1B19"/>
<ellipse cx="27.8017" cy="8.55261" rx="27.8017" ry="8.55261" transform="matrix(-0.994649 0.103309 0.113809 0.993503 410.147 615.821)" fill="#1C1B19"/>
<path d="M458.921 294.687L440.697 361.977L458.921 413.847L636.961 448.193L709.859 406.838L696.541 319.921C673.41 351.463 614.951 413.006 566.166 406.838C517.38 400.669 474.342 329.5 458.921 294.687Z" fill="#D68409"/>
<path d="M458.921 300.704L440.697 367.994L458.921 419.864L636.961 454.21L709.859 412.854L696.541 325.938C673.41 357.48 614.951 419.023 566.166 412.854C517.38 406.686 474.342 335.517 458.921 300.704Z" fill="#E39A2C" stroke="black" stroke-width="10.7499" stroke-linecap="round"/>
<path d="M565.202 457.232C472.04 448.227 395.689 449.49 394.668 460.054L390.309 280.836C402.778 312.874 437.732 377.178 477.788 378.099C517.844 379.02 563.156 304.816 580.805 267.6C590.397 307.31 621.091 389.149 667.132 398.817C713.174 408.486 762.668 346.829 781.66 314.792L732.037 492.666C733.058 482.102 658.364 466.237 565.202 457.232Z" fill="#FDC434"/>
<path opacity="0.5" d="M394.668 460.054C395.689 449.49 472.04 448.226 565.202 457.232C658.364 466.237 733.058 482.101 732.037 492.666L762.323 384.104C743.123 418.584 704.39 455.645 643.447 442.249C530.506 417.422 463.126 419.57 394.023 433.515L394.668 460.054Z" fill="#D68409"/>
<path d="M544.502 387.124L567.35 362.592L585.494 390.781L562.647 415.313L544.502 387.124Z" fill="#C51F5D"/>
<path d="M544.502 387.124L567.35 362.592L565.705 390.469L544.502 387.124Z" fill="#E75B90"/>
<path d="M544.502 387.124L567.35 362.592L585.494 390.781L562.647 415.313L544.502 387.124Z" stroke="black" stroke-width="10.7499" stroke-linecap="round" stroke-linejoin="round"/>
<path d="M565.202 457.232C472.04 448.227 395.689 449.49 394.668 460.054L390.309 280.836C402.778 312.874 437.732 377.178 477.788 378.099C517.844 379.02 563.156 304.816 580.805 267.6C590.397 307.31 621.091 389.149 667.132 398.817C713.174 408.486 762.668 346.829 781.66 314.792L732.037 492.666C733.058 482.102 658.364 466.237 565.202 457.232Z" stroke="black" stroke-width="10.7499" stroke-linecap="round" stroke-linejoin="round"/>
<circle cx="388.101" cy="282.448" r="25.3938" fill="#FDC434" stroke="black" stroke-width="10.7499" stroke-linecap="round"/>
<circle cx="578.753" cy="263.56" r="25.3938" fill="#FDC434" stroke="black" stroke-width="10.7499" stroke-linecap="round"/>
<circle cx="779.52" cy="320.484" r="25.3938" fill="#FDC434" stroke="black" stroke-width="10.7499" stroke-linecap="round"/>
<circle cx="697.019" cy="324.191" r="18.2276" fill="#E39A2C" stroke="black" stroke-width="10.7499" stroke-linecap="round"/>
<circle cx="458.925" cy="294.687" r="18.2276" fill="#E39A2C" stroke="black" stroke-width="10.7499" stroke-linecap="round"/>
<path d="M528.225 416.78C547.4 414.589 586.755 453.271 604.036 472.887H492.614C476.863 461.196 455.634 439.379 474.124 434.585C488.916 430.75 512.246 440.749 522.062 446.227C516.127 437.325 509.05 418.971 528.225 416.78Z" fill="#F1F1F1"/>
<path d="M604.036 472.887C586.755 453.271 547.4 414.589 528.225 416.78C509.05 418.971 516.127 437.325 522.062 446.227M522.062 446.227C512.246 440.749 488.916 430.75 474.124 434.585C459.377 438.409 469.896 453.061 482.751 464.768M522.062 446.227L529.426 456.059" stroke="black" stroke-width="10.7499" stroke-linecap="round"/>
</svg>
