<svg width="599" height="749" viewBox="0 0 599 749" fill="none" xmlns="http://www.w3.org/2000/svg">
<path d="M384.971 293.426C380.87 310.972 370.533 348.164 348.941 353.371C329.399 357.484 338.647 315.128 337.6 299.639C326.259 299.639 315.965 300.689 305.67 297.583C304.667 323.398 309.814 354.421 302.573 379.186C253.152 387.456 253.152 306.859 248.005 278.987C243.861 277.936 237.711 277.936 232.564 280.037C233.48 297.889 235.312 313.553 239.368 328.386C217.515 325.411 205.651 294.257 203.688 274.874H198.541C193.742 299.858 213.938 341.819 242.509 338.363C247.569 352.495 255.115 366.06 266.543 380.236C276.838 392.619 294.329 407.102 300.523 423.642C305.67 436.024 303.62 453.614 303.62 467.047C302.573 520.779 301.57 574.466 301.57 628.198C301.57 659.177 300.174 746.994 300.174 746.994L342.747 748.044C343.794 682.936 337.6 616.821 337.6 550.707C337.6 505.245 335.55 456.721 342.747 412.265C343.794 403.995 345.844 388.506 350.991 381.287C357.185 371.967 372.626 368.904 380.87 359.584C395.309 344.094 399.409 315.172 402.506 294.476C396.312 294.476 391.165 294.476 385.014 293.426H384.971Z" fill="#634016"/>
<path d="M541.172 126.893C558.14 123.83 562.023 93.2012 538.206 95.6077C557.573 88.9132 551.641 57.7594 528.174 77.9743C535.197 66.8605 534.062 53.5151 517.618 53.5151C537.552 51.2836 548.152 25.6867 522.329 29.0121C558.707 21.2237 537.596 -19.9501 512.951 1.18375C534.062 -15.487 514.128 -31.0639 495.328 -21.044C521.151 -37.7147 501.173 -58.8486 475.35 -44.4093C499.996 -68.8685 456.594 -71.1001 441.327 -52.1978C441.327 -59.9862 438.972 -63.3116 430.771 -63.3116C460.127 -76.657 430.771 -96.6969 413.149 -78.8885C434.828 -98.4471 415.417 -106.542 397.533 -96.2156C397.315 -99.3222 396.748 -102.166 395.527 -104.485C387.326 -117.831 375.549 -111.136 368.526 -97.7908C370.881 -130.038 339.17 -134.502 341.525 -100.022C340.348 -132.27 298.08 -127.851 315.703 -94.4654C301.613 -117.831 286.347 -97.7908 289.88 -79.9824C285.605 -94.2466 264.624 -101.904 262.923 -86.0644C262.923 -96.4781 261.832 -114.505 250.011 -114.505C235.922 -115.599 238.278 -91.14 239.456 -83.3515C237.1 -93.3715 223.055 -104.485 213.633 -94.4654C206.566 -88.9085 211.277 -74.4255 212.455 -66.637C196.054 -95.9968 178.955 -77.0945 182.009 -57.2734C165.346 -64.5368 139.697 -67.7309 158.454 -41.0402C130.276 -47.691 119.72 -37.7147 143.187 -16.5809C119.72 -22.1378 104.453 -9.93011 129.098 4.5529C105.631 5.64679 85.6528 8.9722 106.808 34.5691C86.8305 34.5691 63.3632 55.7029 93.8969 59.0283C76.2746 64.5852 57.5181 86.8567 89.186 83.4875C65.7186 89.0444 65.7186 109.084 92.7192 106.853C68.0741 111.316 72.785 138.007 97.4301 136.913C82.1632 136.913 85.6964 160.278 98.6078 162.51C92.7192 162.51 75.1405 160.278 75.1405 166.973C75.1405 174.761 92.7628 175.855 97.4301 174.761C71.6073 180.318 77.4959 204.777 102.141 203.683C82.6867 217.029 105.064 228.405 120.636 224.03C102.446 232.606 114.18 257.415 137.386 244.857C133.852 250.414 132.675 255.971 132.675 262.666C139.697 264.897 145.586 263.759 150.297 259.34C135.03 277.149 158.498 283.799 172.587 272.686C162.031 291.588 190.209 296.051 200.765 283.799C186.676 302.702 212.499 307.165 220.699 288.262C211.321 314.953 240.633 317.185 242.989 291.588C246.522 306.027 267.634 302.702 272.345 289.356C269.989 308.259 291.145 317.141 296.99 298.239C300.043 324.361 317.317 321.035 327.175 304.321C336.902 325.892 365.429 337.837 367.436 302.702C372.146 328.299 404.992 324.929 400.281 297.145C404.992 320.51 433.17 304.933 431.993 287.125C443.726 290.45 451.927 281.568 451.927 271.548C450.749 300.47 491.839 280.474 471.861 255.971C489.483 268.223 493.016 244.857 484.772 233.743C504.75 255.971 521.151 223.723 503.572 209.284C522.329 212.609 531.751 189.244 511.773 183.687C523.506 182.593 525.862 169.248 522.329 160.322C550.856 168.635 567.082 129.299 541.216 126.893H541.172Z" fill="#92CC5A"/>
<path d="M302.106 206.268C313.032 204.324 315.531 184.88 300.196 186.408C312.666 182.158 308.847 162.381 293.736 175.214C298.258 168.158 297.527 159.686 286.938 159.686C299.774 158.27 306.6 142.02 289.972 144.131C313.397 139.187 299.802 113.049 283.933 126.465C297.527 115.882 284.691 105.993 272.586 112.354C289.213 101.771 276.349 88.3548 259.722 97.5212C275.591 81.9938 247.644 80.5772 237.813 92.5769C237.813 87.6326 236.297 85.5215 231.016 85.5215C249.919 77.0495 231.016 64.3276 219.669 75.6329C233.628 63.2165 221.13 58.0778 209.614 64.6332C209.473 62.661 209.108 60.8555 208.322 59.3833C203.041 50.9113 195.458 55.1612 190.936 63.6332C192.452 43.1615 172.033 40.3282 173.549 62.2166C172.791 41.7449 145.574 44.5503 156.922 65.7442C147.85 50.9113 138.019 63.6332 140.294 74.9385C137.541 65.8831 124.031 61.0221 122.936 71.0774C122.936 64.4665 122.234 53.0223 114.622 53.0223C105.55 52.3279 107.067 67.8553 107.825 72.7996C106.308 66.4387 97.2641 59.3833 91.1972 65.7442C86.647 69.2719 89.6805 78.4661 90.4389 83.4105C79.878 64.772 68.8677 76.7717 70.8338 89.3548C60.1045 84.7438 43.5891 82.716 55.6666 99.66C37.5222 95.4379 30.725 101.771 45.836 115.187C30.725 111.66 20.8944 119.41 36.7638 128.604C21.6528 129.298 8.78875 131.409 22.4111 147.659C9.54711 147.659 -5.56392 161.075 14.0973 163.186C2.74996 166.714 -9.32763 180.852 11.0638 178.714C-4.0472 182.241 -4.0472 194.963 13.3389 193.547C-2.53048 196.38 0.502963 213.324 16.3724 212.629C6.54176 212.629 8.81684 227.462 17.1307 228.879C13.3389 228.879 2.01968 227.462 2.01968 231.712C2.01968 236.657 13.367 237.351 16.3724 236.657C-0.255397 240.184 3.5364 255.712 19.4058 255.017C6.8788 263.489 21.2876 270.711 31.3149 267.934C19.6024 273.378 27.1579 289.127 42.1004 281.155C39.8253 284.683 39.067 288.211 39.067 292.461C43.5891 293.877 47.3809 293.155 50.4143 290.35C40.5837 301.655 55.6947 305.877 64.767 298.822C57.9698 310.821 76.1143 313.655 82.9114 305.877C73.8392 317.877 90.4669 320.71 95.7474 308.71C89.7086 325.654 108.583 327.071 110.1 310.821C112.375 319.988 125.969 317.877 129.003 309.405C127.486 321.404 141.109 327.043 144.872 315.043C146.838 331.626 157.961 329.515 164.309 318.904C170.572 332.599 188.941 340.182 190.233 317.877C193.267 334.126 214.417 331.987 211.383 314.349C214.417 329.182 232.561 319.293 231.803 307.988C239.358 310.099 244.639 304.46 244.639 298.099C243.88 316.46 270.339 303.766 257.475 288.211C268.822 295.988 271.097 281.155 265.789 274.1C278.653 288.211 289.213 267.739 277.894 258.573C289.972 260.684 296.039 245.851 283.175 242.323C290.73 241.629 292.247 233.157 289.972 227.49C308.341 232.768 318.789 207.796 302.134 206.268H302.106Z" fill="#92CC5A"/>
<path d="M590.106 206.268C601.032 204.324 603.531 184.88 588.196 186.408C600.666 182.158 596.847 162.381 581.736 175.214C586.258 168.158 585.527 159.686 574.938 159.686C587.774 158.27 594.6 142.02 577.972 144.131C601.397 139.187 587.802 113.049 571.933 126.465C585.527 115.882 572.691 105.993 560.586 112.354C577.213 101.771 564.349 88.3548 547.722 97.5212C563.591 81.9938 535.644 80.5772 525.813 92.5769C525.813 87.6326 524.297 85.5215 519.016 85.5215C537.919 77.0495 519.016 64.3276 507.669 75.6329C521.628 63.2165 509.13 58.0778 497.614 64.6332C497.473 62.661 497.108 60.8555 496.322 59.3833C491.041 50.9113 483.458 55.1612 478.936 63.6332C480.452 43.1615 460.033 40.3282 461.549 62.2166C460.791 41.7449 433.574 44.5503 444.922 65.7442C435.85 50.9113 426.019 63.6332 428.294 74.9385C425.541 65.8831 412.031 61.0221 410.936 71.0774C410.936 64.4665 410.234 53.0223 402.622 53.0223C393.55 52.3279 395.067 67.8553 395.825 72.7996C394.308 66.4387 385.264 59.3833 379.197 65.7442C374.647 69.2719 377.68 78.4661 378.439 83.4105C367.878 64.772 356.868 76.7717 358.834 89.3548C348.104 84.7438 331.589 82.716 343.667 99.66C325.522 95.4379 318.725 101.771 333.836 115.187C318.725 111.66 308.894 119.41 324.764 128.604C309.653 129.298 296.789 131.409 310.411 147.659C297.547 147.659 282.436 161.075 302.097 163.186C290.75 166.714 278.672 180.852 299.064 178.714C283.953 182.241 283.953 194.963 301.339 193.547C285.47 196.38 288.503 213.324 304.372 212.629C294.542 212.629 296.817 227.462 305.131 228.879C301.339 228.879 290.02 227.462 290.02 231.712C290.02 236.657 301.367 237.351 304.372 236.657C287.745 240.184 291.536 255.712 307.406 255.017C294.879 263.489 309.288 270.711 319.315 267.934C307.602 273.378 315.158 289.127 330.1 281.155C327.825 284.683 327.067 288.211 327.067 292.461C331.589 293.877 335.381 293.155 338.414 290.35C328.584 301.655 343.695 305.877 352.767 298.822C345.97 310.821 364.114 313.655 370.911 305.877C361.839 317.877 378.467 320.71 383.747 308.71C377.709 325.654 396.583 327.071 398.1 310.821C400.375 319.988 413.969 317.877 417.003 309.405C415.486 321.404 429.109 327.043 432.872 315.043C434.838 331.626 445.961 329.515 452.309 318.904C458.572 332.599 476.941 340.182 478.233 317.877C481.267 334.126 502.417 331.987 499.383 314.349C502.417 329.182 520.561 319.293 519.803 307.988C527.358 310.099 532.639 304.46 532.639 298.099C531.88 316.46 558.339 303.766 545.475 288.211C556.822 295.988 559.097 281.155 553.789 274.1C566.653 288.211 577.213 267.739 565.894 258.573C577.972 260.684 584.039 245.851 571.175 242.323C578.73 241.629 580.247 233.157 577.972 227.49C596.341 232.768 606.789 207.796 590.134 206.268H590.106Z" fill="#92CC5A"/>
<path d="M488.332 121.916C501.437 119.549 504.435 95.8751 486.042 97.7352C500.999 92.5607 496.417 68.481 478.294 84.1058C483.717 75.5155 482.841 65.2005 470.142 65.2005C485.536 63.4757 493.722 43.6911 473.78 46.2614C501.875 40.2415 485.57 8.41707 466.537 24.752C482.841 11.8667 467.447 -0.173164 452.928 7.57157C472.87 -5.31377 457.442 -21.6487 437.499 -10.4882C456.532 -29.3935 423.014 -31.1183 411.223 -16.5081C411.223 -22.5281 409.404 -25.0984 403.071 -25.0984C425.742 -35.4134 403.071 -50.9029 389.462 -37.1382C406.204 -52.2557 391.213 -58.5123 377.402 -50.5308C377.233 -52.9321 376.795 -55.1303 375.852 -56.9228C369.519 -67.2378 360.424 -62.0634 355 -51.7484C356.819 -76.6736 332.329 -80.1232 334.148 -53.4732C333.238 -78.3984 300.596 -74.9826 314.205 -49.1781C303.324 -67.2378 291.534 -51.7484 294.263 -37.9837C290.961 -49.009 274.758 -54.9274 273.444 -42.6847C273.444 -50.7338 272.602 -64.6675 263.473 -64.6675C252.592 -65.513 254.411 -46.6077 255.321 -40.5878C253.502 -48.3326 242.654 -56.9228 235.378 -49.1781C229.921 -44.8829 233.559 -33.6886 234.468 -27.6687C221.802 -50.3617 208.597 -35.7516 210.955 -20.4312C198.087 -26.0453 178.279 -28.5142 192.764 -7.88408C171.002 -13.0247 162.85 -5.31377 180.974 11.0212C162.85 6.72607 151.06 16.1618 170.093 27.3562C151.969 28.2017 136.541 30.772 152.879 50.5565C137.45 50.5565 119.327 66.8915 142.908 69.4618C129.298 73.7569 114.813 90.9712 139.269 88.3671C121.146 92.6622 121.146 108.152 141.998 106.427C122.965 109.876 126.603 130.507 145.636 129.661C133.846 129.661 136.575 147.721 146.546 149.446C141.998 149.446 128.422 147.721 128.422 152.895C128.422 158.915 142.032 159.761 145.636 158.915C125.694 163.21 130.241 182.116 149.274 181.27C134.25 191.585 151.531 200.378 163.558 196.996C149.51 203.625 158.572 222.801 176.493 213.095C173.765 217.39 172.855 221.685 172.855 226.859C178.279 228.584 182.827 227.705 186.465 224.289C174.674 238.054 192.798 243.194 203.679 234.604C195.526 249.214 217.288 252.664 225.44 243.194C214.56 257.804 234.502 261.254 240.835 246.644C233.593 267.274 256.23 268.999 258.049 249.214C260.778 260.375 277.082 257.804 280.72 247.489C278.901 262.099 295.24 268.965 299.754 254.355C302.112 274.545 315.452 271.975 323.065 259.056C330.577 275.729 352.608 284.962 354.158 257.804C357.796 277.589 383.162 274.985 379.524 253.509C383.162 271.569 404.924 259.529 404.014 245.764C413.076 248.335 419.409 241.469 419.409 233.725C418.5 256.079 450.233 240.624 434.804 221.685C448.414 231.154 451.142 213.095 444.775 204.504C460.204 221.685 472.87 196.76 459.294 185.599C473.78 188.169 481.056 170.11 465.628 165.814C474.689 164.969 476.508 154.654 473.78 147.755C495.811 154.18 508.342 123.776 488.366 121.916H488.332Z" fill="#A8E26A"/>
<path d="M439.307 78.268C448.757 76.5556 450.919 59.4313 437.655 60.7767C448.441 57.0338 445.137 39.616 432.067 50.918C435.978 44.7043 435.347 37.243 426.188 37.243C437.29 35.9954 443.194 21.6843 428.812 23.5436C449.073 19.1891 437.315 -3.83088 423.588 7.9849C435.347 -1.33562 424.244 -10.0446 413.773 -4.44247C428.156 -13.763 417.029 -25.5788 402.647 -17.5059C416.373 -31.1809 392.2 -32.4285 383.697 -21.8603C383.697 -26.2148 382.385 -28.074 377.818 -28.074C394.168 -35.5353 377.818 -46.7395 368.003 -36.783C380.077 -47.7181 369.266 -52.2438 359.306 -46.4704C359.184 -48.2073 358.868 -49.7975 358.188 -51.094C353.621 -58.5553 347.061 -54.8124 343.15 -47.3511C344.462 -65.3806 326.8 -67.8758 328.112 -48.5988C327.456 -66.6282 303.915 -64.1574 313.73 -45.4919C305.883 -58.5553 297.38 -47.3511 299.348 -37.3945C296.967 -45.3696 285.281 -49.6507 284.334 -40.795C284.334 -46.6172 283.726 -56.6961 277.143 -56.6961C269.296 -57.3077 270.607 -43.6327 271.263 -39.2782C269.951 -44.8803 262.129 -51.094 256.881 -45.4919C252.946 -42.3851 255.569 -34.2877 256.225 -29.9332C247.091 -46.3481 237.567 -35.78 239.268 -24.6981C229.987 -28.759 215.702 -30.5448 226.149 -15.6222C210.455 -19.3406 204.576 -13.763 217.646 -1.94721C204.576 -5.05405 196.073 1.77121 209.799 9.86857C196.729 10.4802 185.602 12.3394 197.385 26.6504C186.258 26.6504 173.187 38.4662 190.193 40.3254C180.379 43.4322 169.932 55.8841 187.57 54.0004C174.499 57.1072 174.499 68.3114 189.538 67.0638C175.811 69.5591 178.435 84.4817 192.161 83.8701C183.658 83.8701 185.626 96.9335 192.817 98.1812C189.538 98.1812 179.747 96.9335 179.747 100.676C179.747 105.031 189.562 105.642 192.161 105.031C177.779 108.138 181.059 121.813 194.785 121.201C183.95 128.662 196.413 135.023 205.086 132.577C194.955 137.371 201.49 151.242 214.415 144.221C212.447 147.328 211.791 150.435 211.791 154.178C215.702 155.425 218.982 154.789 221.606 152.318C213.103 162.275 226.173 165.993 234.02 159.78C228.141 170.348 243.835 172.843 249.714 165.993C241.867 176.562 256.25 179.057 260.817 168.489C255.594 183.411 271.919 184.659 273.231 170.348C275.199 178.421 286.957 176.562 289.581 169.1C288.269 179.668 300.052 184.634 303.308 174.066C305.008 188.671 314.629 186.812 320.119 177.467C325.537 189.527 341.425 196.206 342.543 176.562C345.167 190.873 363.46 188.989 360.836 173.455C363.46 186.518 379.154 177.809 378.498 167.853C385.033 169.712 389.601 164.746 389.601 159.144C388.945 175.314 411.83 164.134 400.703 150.435C410.518 157.285 412.486 144.221 407.894 138.007C419.021 150.435 428.156 132.405 418.365 124.332C428.812 126.192 434.059 113.128 422.932 110.021C429.468 109.41 430.779 101.949 428.812 96.958C444.7 101.606 453.738 79.6135 439.331 78.268H439.307Z" fill="#B8ED7F"/>
</svg>
